<svg width="14" height="14" viewBox="0 0 14 14" fill="none" xmlns="http://www.w3.org/2000/svg">
<path d="M7.09758 0.00065037C3.16112 -0.0525177 -0.0525177 3.16112 0.00065037 7.09758C0.0531454 10.8728 3.12714 13.9468 6.9024 13.9993C10.8395 14.0532 14.0525 10.8395 13.9987 6.90308C13.9468 3.12713 10.8728 0.0531454 7.09758 0.00065037ZM11.3517 11.0128C11.3383 11.0273 11.3219 11.0387 11.3036 11.0461C11.2853 11.0536 11.2656 11.0569 11.2459 11.0559C11.2261 11.0548 11.2069 11.0495 11.1895 11.0402C11.1721 11.0309 11.1569 11.0179 11.1451 11.0021C10.8441 10.6083 10.4755 10.2711 10.0565 10.0063C9.19974 9.45649 8.11417 9.15363 6.99999 9.15363C5.88582 9.15363 4.80025 9.45649 3.9435 10.0063C3.52451 10.271 3.1559 10.608 2.8549 11.0017C2.84308 11.0175 2.82792 11.0306 2.8105 11.0399C2.79308 11.0492 2.77383 11.0545 2.75412 11.0555C2.7344 11.0566 2.7147 11.0532 2.69641 11.0458C2.67812 11.0384 2.66169 11.027 2.64829 11.0125C1.66087 9.94657 1.10153 8.55374 1.07747 7.10094C1.02262 3.8264 3.70963 1.08555 6.98552 1.07747C10.2614 1.0694 12.9225 3.72948 12.9225 6.99999C12.9236 8.48783 12.3626 9.92115 11.3517 11.0128V11.0128Z" fill="#6D6C79"/>
<path d="M7 3.23111C6.3364 3.23111 5.73641 3.47979 5.31006 3.93172C4.8837 4.38365 4.6707 5.00854 4.71882 5.6792C4.8164 6.99999 5.83972 8.07681 7 8.07681C8.16027 8.07681 9.18157 6.99999 9.28118 5.67953C9.33098 5.01527 9.11965 4.3961 8.68623 3.93575C8.25819 3.48147 7.65921 3.23111 7 3.23111Z" fill="#6D6C79"/>
</svg>
