<svg width="25" height="18" viewBox="0 0 25 18" fill="none" xmlns="http://www.w3.org/2000/svg">
<path d="M24.2641 1.12734C22.7488 0.491797 21.2324 0.25 19.7168 0.25C14.9055 0.249609 10.0945 2.68516 5.2832 2.68516C4.07656 2.68516 2.8707 2.53203 1.66406 2.14922C1.52852 2.10625 1.39258 2.08594 1.25977 2.08594C0.5875 2.08594 0 2.60625 0 3.32852V15.7215C0 16.2148 0.282422 16.6824 0.735937 16.8723C2.25117 17.5082 3.76758 17.75 5.2832 17.75C10.0945 17.75 14.9059 15.3145 19.7172 15.3145C20.9238 15.3145 22.1297 15.4676 23.3363 15.8504C23.4719 15.8934 23.6078 15.9137 23.7406 15.9137C24.4129 15.9137 25.0004 15.3934 25.0004 14.6711V2.27852C25 1.78477 24.7176 1.31758 24.2641 1.12734ZM1.875 4.16484C2.66094 4.36172 3.48125 4.46055 4.325 4.51367C4.09531 5.66172 3.08594 6.52695 1.875 6.52695V4.16484ZM1.875 15.2977V13.4312C3.21758 13.4312 4.30391 14.4965 4.36367 15.8297C3.48359 15.759 2.66094 15.5832 1.875 15.2977ZM12.5 12.75C10.7738 12.75 9.375 11.0707 9.375 9C9.375 6.92891 10.7742 5.25 12.5 5.25C14.2258 5.25 15.625 6.92891 15.625 9C15.625 11.0715 14.2254 12.75 12.5 12.75ZM23.125 13.8352C22.4406 13.6637 21.7301 13.5676 21.0031 13.5055C21.2324 12.4867 22.0773 11.7133 23.125 11.5805V13.8352ZM23.125 4.61211C21.9184 4.45937 20.982 3.45195 20.9449 2.20781C21.7082 2.29258 22.4328 2.45117 23.125 2.70234V4.61211Z" fill="#6D6E7A"/>
</svg>
