<svg width="18" height="20" viewBox="0 0 18 20" fill="none" xmlns="http://www.w3.org/2000/svg">
<path d="M17.3333 2H16V0.933667C16 0.42 15.614 0 15.1433 0H10.8553C10.386 0 10 0.42 10 0.933667V2H1.98033L0 6H1.375V8.66667H1.15233L0.0416667 10L1.15233 11.3333H1.39567V12.0493C1.39567 12.2303 1.53533 12.3767 1.70833 12.3767C2.22533 12.3767 2.646 12.818 2.646 13.3603C2.646 13.9027 2.22533 14.344 1.70833 14.344C1.19133 14.344 0.770667 13.9027 0.770667 13.3603C0.770667 13.1793 0.630667 13.033 0.458 13.033C0.285 13.033 0.145333 13.1793 0.145333 13.3603C0.146 14.265 0.846667 15 1.70833 15C2.56967 15 3.271 14.265 3.271 13.3607C3.271 12.569 2.73333 11.9063 2.021 11.7547V11.3333H2.264L3.375 10L2.264 8.66667H2.04167V6H10V8.39967C10 8.84233 10.287 9.21333 10.6667 9.30867V20H11.5417V18L14.4583 19L11.5417 20H15.3333V9.30833C15.7133 9.21333 16 8.84233 16 8.39967V6H17.3333V5H16.6407L17.3333 3.685V2ZM1.54767 5L2.32633 3.40033L3.16833 5H1.54767ZM3.02167 3H4.406L3.714 4.315L3.02167 3ZM4.25967 5L4.952 3.685L5.64467 5H4.25967ZM5.498 3H6.88233L6.19 4.315L5.498 3ZM6.73633 5L7.42833 3.685L8.12033 5H6.73633ZM7.97433 3H9.35867L8.66667 4.315L7.97433 3ZM10 5H9.21233L9.90433 3.685L10 3.86667V5ZM14.4583 18L11.5417 17L14.4583 16V18ZM11.5417 16V14L14.4583 15.0007L11.5417 16ZM14.4583 14L11.5417 13L14.4583 12V14ZM11.5417 12V10.0007L14.4583 11L11.5417 12ZM14.4583 10.0007L12.5133 9.33333H14.4583V10.0007ZM14.9583 4.416C14.9583 4.737 14.733 5 14.4583 5H11.4577C11.183 5 10.9583 4.737 10.9583 4.416V1.586C10.9583 1.263 11.183 1 11.4577 1H14.4583C14.733 1 14.9583 1.263 14.9583 1.586V4.416ZM16.095 4.315L16 4.13433V3H16.787L16.095 4.315Z" fill="#6D6E7A"/>
</svg>
