<svg width="24" height="14" viewBox="0 0 24 14" fill="none" xmlns="http://www.w3.org/2000/svg">
<path d="M15.8427 0H12.7121C12.4205 0 12.1399 0.109335 11.9248 0.306139L8.34229 3.5862C8.33864 3.58984 8.335 3.59713 8.33135 3.60078C7.72636 4.16932 7.7373 5.0768 8.25482 5.6417C8.71767 6.14829 9.69076 6.28314 10.2994 5.74011C10.303 5.73646 10.3103 5.73646 10.314 5.73282L13.2259 3.06503C13.4628 2.85001 13.8346 2.86459 14.0496 3.10148C14.2683 3.33837 14.25 3.70647 14.0131 3.92514L13.0619 4.79618L18.3683 9.10399C18.474 9.19146 18.5688 9.28621 18.6563 9.38462V2.33249L16.6664 0.342584C16.4513 0.123913 16.1525 0 15.8427 0ZM19.8261 2.33978V10.4998C19.8261 11.1449 20.3473 11.6661 20.9924 11.6661H23.3249V2.33978H19.8261ZM21.5755 10.4998C21.2548 10.4998 20.9924 10.2374 20.9924 9.91672C20.9924 9.596 21.2548 9.33359 21.5755 9.33359C21.8962 9.33359 22.1586 9.596 22.1586 9.91672C22.1586 10.2374 21.8962 10.4998 21.5755 10.4998ZM0 11.6624H2.33249C2.97757 11.6624 3.49873 11.1413 3.49873 10.4962V2.33978H0V11.6624ZM1.74937 9.33359C2.07008 9.33359 2.33249 9.596 2.33249 9.91672C2.33249 10.2374 2.07008 10.4998 1.74937 10.4998C1.42865 10.4998 1.16624 10.2374 1.16624 9.91672C1.16624 9.59235 1.42865 9.33359 1.74937 9.33359ZM17.6358 10.0115L12.1945 5.59433L11.1012 6.59657C10.0188 7.58423 8.36051 7.48947 7.39471 6.43621C6.41434 5.36472 6.49088 3.70647 7.55507 2.72974L10.5363 0H7.48218C7.1724 0 6.87719 0.123913 6.65852 0.342584L4.66497 2.33249V10.4925H5.33192L8.6302 13.4774C9.6288 14.2901 11.0975 14.1371 11.9103 13.1385L11.9176 13.1312L12.5699 13.6961C13.1494 14.1699 14.0059 14.0787 14.476 13.4993L15.6204 12.0925L15.8172 12.2528C16.3165 12.6574 17.0527 12.5845 17.4572 12.0816L17.8034 11.6551C18.2116 11.1522 18.1351 10.4197 17.6358 10.0115Z" fill="#6D6E7A"/>
</svg>
