<svg width="20" height="20" viewBox="0 0 20 20" fill="none" xmlns="http://www.w3.org/2000/svg">
<path d="M13.6585 1.95122C13.6585 0.868293 14.5268 0 15.6098 0C16.6927 0 17.561 0.868293 17.561 1.95122C17.561 3.03415 16.6927 3.90244 15.6098 3.90244C14.5268 3.90244 13.6585 3.03415 13.6585 1.95122ZM17.561 19.5122V13.6585H20L17.522 6.21463C17.3914 5.82606 17.1424 5.48815 16.8099 5.24841C16.4775 5.00867 16.0782 4.87915 15.6683 4.87805H15.5512C15.141 4.87768 14.741 5.00663 14.4082 5.24658C14.0755 5.48652 13.8268 5.82526 13.6976 6.21463L12.8585 8.73171C13.9122 9.31707 14.6341 10.4195 14.6341 11.7073V19.5122H17.561ZM10.2439 9.26829C11.0537 9.26829 11.7073 8.61463 11.7073 7.80488C11.7073 6.99512 11.0537 6.34146 10.2439 6.34146C9.43415 6.34146 8.78049 6.99512 8.78049 7.80488C8.78049 8.61463 9.43415 9.26829 10.2439 9.26829ZM3.41463 3.90244C4.49756 3.90244 5.36585 3.03415 5.36585 1.95122C5.36585 0.868293 4.49756 0 3.41463 0C2.33171 0 1.46341 0.868293 1.46341 1.95122C1.46341 3.03415 2.33171 3.90244 3.41463 3.90244ZM5.36585 19.5122V12.6829H6.82927V6.82927C6.82927 5.7561 5.95122 4.87805 4.87805 4.87805H1.95122C0.878049 4.87805 0 5.7561 0 6.82927V12.6829H1.46341V19.5122H5.36585ZM11.7073 19.5122V15.6098H12.6829V11.7073C12.6829 10.9073 12.0195 10.2439 11.2195 10.2439H9.26829C8.46829 10.2439 7.80488 10.9073 7.80488 11.7073V15.6098H8.78049V19.5122H11.7073Z" fill="#6D6E7A"/>
</svg>
