<svg width="18" height="20" viewBox="0 0 18 20" fill="none" xmlns="http://www.w3.org/2000/svg">
<path d="M17.5 11.6667V20H11.25V18.3333H5.83333V20H0V11.6667H17.5ZM13.7288 10.1479C13.4896 9.1025 12.95 8.18333 12.0996 7.48083C11.2758 6.79625 10.3012 6.66667 9.17083 6.25H9.16667V3.61333L9.385 3.55458L9.86292 3.3775C10.0467 3.31542 10.2129 3.26333 10.3862 3.22667C10.5562 3.18625 10.6742 3.16917 10.755 3.16917C10.9121 3.16917 11.1108 3.19417 11.3433 3.245C11.58 3.3025 11.8321 3.36458 12.0883 3.435C12.3554 3.51583 12.5937 3.57708 12.825 3.62917C13.0454 3.67958 13.23 3.70042 13.3829 3.70042C13.6262 3.70083 13.75 3.66708 14.1667 3.59292V0.575417C13.75 0.674583 13.6762 0.729167 13.3825 0.729167C13.2296 0.729167 13.0404 0.705833 12.8196 0.65C12.5892 0.605833 12.3517 0.537083 12.0846 0.459583C11.8464 0.388089 11.6056 0.326096 11.3625 0.27375C11.1362 0.22 10.9892 0.194167 10.8292 0.194167C10.2987 0.194167 9.58333 0.319583 9.16667 0.550833V0H8.33333V6.25H8.30708C7.18542 6.66667 6.20333 6.82 5.38042 7.50458C4.54625 8.20792 4.00458 9.0675 3.74833 10.1133C3.74833 10.1133 2.94958 10 2.94958 10.8333H14.6037C14.6037 10 13.7288 10.1479 13.7288 10.1479Z" fill="#6D6E7A"/>
</svg>
