<svg width="20" height="20" viewBox="0 0 20 20" fill="none" xmlns="http://www.w3.org/2000/svg">
<path d="M19.6191 10.8604C19.3652 11.1146 19.0592 11.2416 18.7012 11.2416C18.3431 11.2416 18.0404 11.1113 17.793 10.8506L17.5 10.5769V18.749H19.375C19.5443 18.749 19.6908 18.8109 19.8145 18.9347C19.9382 19.0585 20 19.2052 20 19.3746C20 19.544 19.9382 19.6907 19.8145 19.8145C19.6908 19.9383 19.5443 20.0002 19.375 20.0002H0.644531C0.47526 20.0002 0.328776 19.9383 0.205078 19.8145C0.0813802 19.6907 0.0195312 19.544 0.0195312 19.3746C0.0195312 19.2052 0.0813802 19.0585 0.205078 18.9347C0.328776 18.8109 0.47526 18.749 0.644531 18.749H2.5V10.5769L2.20703 10.8506C1.95964 11.1113 1.6569 11.2416 1.29883 11.2416C0.940755 11.2416 0.634766 11.1146 0.380859 10.8604C0.126953 10.6063 0 10.3 0 9.94155C0 9.58313 0.123698 9.2801 0.371094 9.03246L9.04297 0.371655C9.30339 0.110984 9.6224 -0.012835 10 0.000198547C10.3776 -0.012835 10.6966 0.110984 10.957 0.371655L19.6094 9.03246C19.8698 9.2801 20 9.58313 20 9.94155C20 10.3 19.873 10.6063 19.6191 10.8604ZM8.75 13.1185C8.75 12.949 8.68815 12.8024 8.56445 12.6786C8.44075 12.5548 8.29427 12.4929 8.125 12.4929H5.625C5.45573 12.4929 5.30924 12.5548 5.18555 12.6786C5.06185 12.8024 5 12.949 5 13.1185V18.749H8.75V13.1185ZM15 13.1185C15 12.949 14.9382 12.8024 14.8145 12.6786C14.6908 12.5548 14.5443 12.4929 14.375 12.4929H11.875C11.7057 12.4929 11.5592 12.5548 11.4355 12.6786C11.3118 12.8024 11.25 12.949 11.25 13.1185V15.6209C11.25 15.7904 11.3118 15.937 11.4355 16.0608C11.5592 16.1846 11.7057 16.2465 11.875 16.2465H14.375C14.5443 16.2465 14.6908 16.1846 14.8145 16.0608C14.9382 15.937 15 15.7904 15 15.6209V13.1185Z" fill="#6D6E7A"/>
</svg>
