<svg width="20" height="19" viewBox="0 0 20 19" fill="none" xmlns="http://www.w3.org/2000/svg">
<path d="M19.7057 4.13179C19.5273 3.82259 19.2717 3.56492 18.964 3.38391C18.6563 3.20291 18.3069 3.10474 17.95 3.09899H4.73021L4.13118 0.764875C4.07066 0.539558 3.93564 0.341371 3.7481 0.202592C3.56056 0.0638126 3.33155 -0.00738114 3.09839 0.000605715H1.0328C0.758881 0.000605715 0.496186 0.109418 0.302499 0.303105C0.108812 0.496791 0 0.759487 0 1.0334C0 1.30732 0.108812 1.57001 0.302499 1.7637C0.496186 1.95739 0.758881 2.0662 1.0328 2.0662H2.31346L5.16398 12.6627C5.2245 12.888 5.35953 13.0862 5.54707 13.225C5.73461 13.3637 5.96361 13.4349 6.19678 13.427H15.4919C15.6827 13.4264 15.8695 13.373 16.0317 13.2727C16.194 13.1725 16.3253 13.0292 16.4111 12.8589L19.7987 6.08377C19.9455 5.77602 20.0139 5.4367 19.9977 5.09609C19.9814 4.75549 19.8812 4.4242 19.7057 4.13179Z" fill="#6D6E7A"/>
<path d="M5.68037 18.5909C6.53597 18.5909 7.22957 17.8973 7.22957 17.0417C7.22957 16.1862 6.53597 15.4926 5.68037 15.4926C4.82478 15.4926 4.13118 16.1862 4.13118 17.0417C4.13118 17.8973 4.82478 18.5909 5.68037 18.5909Z" fill="#6D6E7A"/>
<path d="M16.0083 18.5909C16.8639 18.5909 17.5575 17.8973 17.5575 17.0417C17.5575 16.1862 16.8639 15.4926 16.0083 15.4926C15.1527 15.4926 14.4591 16.1862 14.4591 17.0417C14.4591 17.8973 15.1527 18.5909 16.0083 18.5909Z" fill="#6D6E7A"/>
</svg>
