<svg width="19" height="21" viewBox="0 0 19 21" fill="none" xmlns="http://www.w3.org/2000/svg">
<path d="M18.25 19.125V16C18.25 15.125 18.125 14.25 17.625 13.375C17.125 12.5 16.5 11.75 15.625 11.25C14.75 10.625 12.875 10.5 12 10.5L10 12.625L10.75 14.25V18L9.5 19.375L8.25 18V14.25L9.125 12.625L7 10.5C6 10.5 4.125 10.625 3.25 11.25C2.375 11.75 1.875 12.5 1.375 13.375C0.875 14.25 0.75 15 0.75 16V19.125C0.75 19.125 4 20.5 9.5 20.5C15 20.5 18.25 19.125 18.25 19.125Z" fill="#6D6E7A"/>
<path d="M9.50001 0.625C7.12501 0.625 5.75001 2.875 6.12501 5.375C6.50001 7.875 7.75001 9.625 9.50001 9.625C11.25 9.625 12.5 7.875 12.875 5.375C13.25 2.75 11.875 0.625 9.50001 0.625Z" fill="#6D6E7A"/>
</svg>
