<svg width="20" height="20" viewBox="0 0 20 20" fill="none" xmlns="http://www.w3.org/2000/svg">
<path d="M0 1.05263C0 0.773456 0.110902 0.505715 0.308309 0.308309C0.505715 0.110902 0.773456 0 1.05263 0C1.33181 0 1.59955 0.110902 1.79695 0.308309C1.99436 0.505715 2.10526 0.773456 2.10526 1.05263H18.9474C19.2265 1.05263 19.4943 1.16353 19.6917 1.36094C19.8891 1.55835 20 1.82609 20 2.10526C20 2.38444 19.8891 2.65218 19.6917 2.84959C19.4943 3.04699 19.2265 3.15789 18.9474 3.15789H2.10526V19.4737C2.10526 19.6133 2.04981 19.7471 1.95111 19.8458C1.85241 19.9445 1.71854 20 1.57895 20H0.526316C0.386728 20 0.252858 19.9445 0.154154 19.8458C0.0554511 19.7471 0 19.6133 0 19.4737V1.05263Z" fill="#6D6E7A"/>
<path d="M3.1579 5.00001C3.1579 4.79063 3.24107 4.58983 3.38913 4.44177C3.53718 4.29372 3.73799 4.21054 3.94737 4.21054H18.1579C18.3673 4.21054 18.5681 4.29372 18.7161 4.44177C18.8642 4.58983 18.9474 4.79063 18.9474 5.00001V13.9474C18.9474 14.7151 18.6424 15.4514 18.0995 15.9943C17.5567 16.5371 16.8204 16.8421 16.0526 16.8421H6.05263C5.67249 16.8421 5.29607 16.7672 4.94487 16.6218C4.59366 16.4763 4.27455 16.2631 4.00575 15.9943C3.46288 15.4514 3.1579 14.7151 3.1579 13.9474V5.00001ZM7.36842 9.95791V13.1579C7.36842 13.2975 7.42387 13.4314 7.52258 13.5301C7.62128 13.6288 7.75515 13.6842 7.89474 13.6842H9.73685C9.80664 13.6842 9.87357 13.6565 9.92293 13.6071C9.97228 13.5578 10 13.4909 10 13.4211V12.1053C10 11.9657 10.0555 11.8318 10.1542 11.7331C10.2529 11.6344 10.3867 11.579 10.5263 11.579H11.579C11.7185 11.579 11.8524 11.6344 11.9511 11.7331C12.0498 11.8318 12.1053 11.9657 12.1053 12.1053V13.4211C12.1053 13.5663 12.2232 13.6842 12.3684 13.6842H14.2105C14.3501 13.6842 14.484 13.6288 14.5827 13.5301C14.6814 13.4314 14.7368 13.2975 14.7368 13.1579V9.95791C14.7369 9.80587 14.7039 9.65563 14.6403 9.51752C14.5767 9.37942 14.484 9.25674 14.3684 9.15791L11.3958 6.61054C11.3005 6.529 11.1791 6.48419 11.0537 6.48419C10.9282 6.48419 10.8069 6.529 10.7116 6.61054L7.73579 9.15791C7.62058 9.25672 7.52809 9.37928 7.46468 9.51718C7.40127 9.65509 7.36844 9.80507 7.36842 9.95686V9.95791Z" fill="#6D6E7A"/>
</svg>
