<svg width="15" height="20" viewBox="0 0 15 20" fill="none" xmlns="http://www.w3.org/2000/svg">
<path d="M13.125 2.5H10C10 1.12109 8.87891 0 7.5 0C6.12109 0 5 1.12109 5 2.5H1.875C0.839844 2.5 0 3.33984 0 4.375V18.125C0 19.1602 0.839844 20 1.875 20H13.125C14.1602 20 15 19.1602 15 18.125V4.375C15 3.33984 14.1602 2.5 13.125 2.5ZM7.5 1.5625C8.01953 1.5625 8.4375 1.98047 8.4375 2.5C8.4375 3.01953 8.01953 3.4375 7.5 3.4375C6.98047 3.4375 6.5625 3.01953 6.5625 2.5C6.5625 1.98047 6.98047 1.5625 7.5 1.5625ZM11.25 13.4375C11.25 13.6094 11.1094 13.75 10.9375 13.75H8.75V15.9375C8.75 16.1094 8.60938 16.25 8.4375 16.25H6.5625C6.39062 16.25 6.25 16.1094 6.25 15.9375V13.75H4.0625C3.89062 13.75 3.75 13.6094 3.75 13.4375V11.5625C3.75 11.3906 3.89062 11.25 4.0625 11.25H6.25V9.0625C6.25 8.89062 6.39062 8.75 6.5625 8.75H8.4375C8.60938 8.75 8.75 8.89062 8.75 9.0625V11.25H10.9375C11.1094 11.25 11.25 11.3906 11.25 11.5625V13.4375ZM11.25 5.9375C11.25 6.10938 11.1094 6.25 10.9375 6.25H4.0625C3.89062 6.25 3.75 6.10938 3.75 5.9375V5.3125C3.75 5.14062 3.89062 5 4.0625 5H10.9375C11.1094 5 11.25 5.14062 11.25 5.3125V5.9375Z" fill="#6D6E7A"/>
</svg>
