<svg width="18" height="20" viewBox="0 0 18 20" fill="none" xmlns="http://www.w3.org/2000/svg">
<path d="M16.25 5C16.25 5.80729 16.4583 7.02474 16.875 8.65234C17.2917 10.2799 17.5 11.5625 17.5 12.5C17.5 13.9323 17.1061 15.1237 16.3184 16.0742C15.5306 17.0247 14.4661 17.5 13.125 17.5C12.6042 17.5 12.0996 17.5879 11.6113 17.7637C11.123 17.9395 10.7129 18.1478 10.3809 18.3887C10.0488 18.6296 9.75586 18.8737 9.50195 19.1211C9.24805 19.3685 9.05925 19.5736 8.93555 19.7363C8.81185 19.8991 8.75 19.987 8.75 20C8.71094 19.9349 8.64909 19.847 8.56445 19.7363C8.47982 19.6257 8.29427 19.4238 8.00781 19.1309C7.72135 18.8379 7.42188 18.584 7.10938 18.3691C6.79688 18.1543 6.39323 17.9557 5.89844 17.7734C5.40365 17.5911 4.89583 17.5 4.375 17.5C3.03385 17.5 1.9694 17.0247 1.18164 16.0742C0.39388 15.1237 0 13.9323 0 12.5C0 11.5625 0.208333 10.2799 0.625 8.65234C1.04167 7.02474 1.25 5.80729 1.25 5C1.25 4.1276 1.1556 3.39844 0.966797 2.8125C0.777995 2.22656 0.455729 1.70573 0 1.25C0 1.21094 0.00325521 1.16536 0.00976562 1.11328C0.016276 1.0612 0.0423177 0.963542 0.0878906 0.820312C0.133464 0.677083 0.195312 0.55013 0.273438 0.439453C0.351562 0.328776 0.47526 0.227865 0.644531 0.136719C0.813802 0.0455729 1.01562 0 1.25 0C1.25 0.208333 1.32161 0.449219 1.46484 0.722656C1.60807 0.996094 1.80664 1.26953 2.06055 1.54297C2.31445 1.81641 2.64648 2.04427 3.05664 2.22656C3.4668 2.40885 3.90625 2.5 4.375 2.5C5.67708 2.5 6.6276 2.27214 7.22656 1.81641C7.82552 1.36068 8.125 0.755208 8.125 0H9.375C9.375 0.755208 9.67448 1.36068 10.2734 1.81641C10.8724 2.27214 11.8229 2.5 13.125 2.5C13.5938 2.5 14.0332 2.40885 14.4434 2.22656C14.8535 2.04427 15.1855 1.81641 15.4395 1.54297C15.6934 1.26953 15.8919 0.996094 16.0352 0.722656C16.1784 0.449219 16.25 0.208333 16.25 0C16.4844 0 16.6862 0.0423177 16.8555 0.126953C17.0247 0.211589 17.1484 0.315755 17.2266 0.439453C17.3047 0.563151 17.3665 0.686849 17.4121 0.810547C17.4577 0.934245 17.487 1.03516 17.5 1.11328V1.25C17.0443 1.70573 16.722 2.22656 16.5332 2.8125C16.3444 3.39844 16.25 4.1276 16.25 5ZM10.2539 8.35938L8.75 5L7.24609 8.35938L3.75 8.82812L6.32812 11.3672L5.66406 15L8.75 13.2031L11.8359 15L11.1719 11.3672L13.75 8.82812L10.2539 8.35938Z" fill="#6D6E7A"/>
</svg>
